<?xml version="1.0" encoding="UTF-8"?>
<svg version="1.1" xmlns="http://www.w3.org/2000/svg" width="512" height="512">
<path d="M0 0 C0.67901367 0.10654907 1.35802734 0.21309814 2.05761719 0.32287598 C36.55373532 5.77145392 71.1616882 14.17278138 102 31 C103.57587891 31.84304687 103.57587891 31.84304687 105.18359375 32.703125 C124.01484822 43.18397925 140.46355974 57.73621439 147.34375 78.6953125 C147.5603125 79.45585938 147.776875 80.21640625 148 81 C148.17659698 81.60129233 148.35319396 82.20258465 148.53514236 82.82209796 C149.06968381 85.32647527 149.11100255 87.58963561 149.09397221 90.15112019 C149.08957947 91.19833597 149.08518673 92.24555174 149.08066088 93.32450134 C149.06575717 95.04843975 149.06575717 95.04843975 149.05055237 96.8072052 C149.04420129 98.02918867 149.03785022 99.25117215 149.03130668 100.51018542 C149.01682372 103.19514489 149.00052141 105.88002432 148.98124886 108.56494713 C148.95005571 112.93398 148.9260536 117.30303393 148.90353394 121.67211914 C148.89769497 122.8000434 148.89769497 122.8000434 148.89173805 123.95075401 C148.88372993 125.49867055 148.87574026 127.04658719 148.86776839 128.59450392 C148.85519201 130.99305554 148.84196351 133.39160288 148.82860959 135.79015028 C148.76450672 147.46926328 148.72567172 159.14829918 148.70188904 170.82756042 C148.70013859 171.67254037 148.69838814 172.51752032 148.69658465 173.38810573 C148.68052729 181.23606982 148.66621781 189.08403663 148.65329087 196.93200648 C148.64436022 202.314292 148.63452106 207.6965752 148.6237793 213.07885742 C148.62200744 213.97283581 148.62023559 214.86681419 148.61841004 215.78788283 C148.58812627 230.25318814 148.50430054 244.71772783 148.40149618 259.1826779 C148.29716733 274.04604142 148.25401298 288.90870647 148.26622146 303.77243441 C148.27176897 312.93287609 148.2297649 322.09053054 148.12578546 331.25039466 C148.05891856 337.53827832 148.05147538 343.82452406 148.08966095 350.11263929 C148.10991744 353.73553445 148.10495651 357.35349217 148.02879524 360.97575188 C147.22497162 376.89937202 147.22497162 376.89937202 153.47220039 390.92633915 C156.71414872 394.23023766 160.22224494 396.97134899 164.03344738 399.58534247 C167.05363927 401.757945 169.54504244 404.30676312 172.15917969 406.95043945 C173.11405304 407.88899305 174.07030127 408.82615191 175.02850342 409.76130676 C179.19294434 413.86191218 183.34704056 417.97293517 187.49511719 422.09008789 C189.67857907 424.25554879 191.87033104 426.41209416 194.06933594 428.56176758 C196.77264832 431.20462248 199.46068718 433.86216037 202.13877106 436.53056908 C203.14623481 437.52956113 204.15876057 438.52347876 205.17671967 439.51177406 C212.30535303 446.44303045 217.01926125 452.53145107 218.53125 462.50390625 C218.44110107 471.32723326 216.66046631 476.93105152 211.875 484.25 C204.64274395 491.16781014 197.76380614 492.55691515 187.90625 492.6640625 C177.92846003 490.96783821 171.33876598 485.04750081 164.4921875 477.98046875 C163.64069122 477.12189774 162.78919495 476.26332672 161.91189575 475.3787384 C159.2208605 472.65993229 156.54783328 469.92419019 153.875 467.1875 C152.04283338 465.33022855 150.2095108 463.47409667 148.375 461.61914062 C143.9032166 457.09251738 139.4460495 452.55189411 135 448 C133.8955038 448.94386908 132.79141768 449.88821804 131.6875 450.83276367 C130.76517578 451.62151131 130.76517578 451.62151131 129.82421875 452.42619324 C128.20083003 453.82673807 126.59718551 455.24554351 125 456.67578125 C117.19197944 463.53829932 109.12915354 469.04101059 100 474 C99.37254883 474.3412793 98.74509766 474.68255859 98.09863281 475.03417969 C69.08204274 490.59207431 36.92153273 499.27836984 4.5 504.1875 C3.48188232 504.3424292 2.46376465 504.4973584 1.41479492 504.65698242 C-18.88646395 507.56258527 -39.00832238 508.37311447 -59.5 508.3125 C-61.41888031 508.30976578 -61.41888031 508.30976578 -63.37652588 508.30697632 C-82.0903905 508.26208036 -100.47843839 507.89469388 -119 505 C-120.16402344 504.82307617 -121.32804688 504.64615234 -122.52734375 504.46386719 C-169.3150174 497.17375334 -224.20391007 483.3112354 -256.19140625 445.4765625 C-264.04016797 434.72901406 -270.13568087 422.82335524 -270.11860371 409.28295898 C-270.11957815 408.13498368 -270.1205526 406.98700838 -270.12155658 405.80424595 C-270.11748127 404.54755572 -270.11340596 403.2908655 -270.10920715 401.99609375 C-270.1083767 400.64398435 -270.10797816 399.29187463 -270.10797423 397.93976498 C-270.10664219 394.22502612 -270.09894625 390.51032359 -270.09015882 386.79559588 C-270.08174114 382.78858485 -270.07908174 378.78156916 -270.07556152 374.77455139 C-270.06572098 365.09756749 -270.04608251 355.42061271 -270.02530077 345.7436471 C-270.01571191 341.18374407 -270.00714161 336.62383914 -269.99844933 332.06393433 C-269.96914679 316.90063993 -269.93735051 301.73735394 -269.89822865 286.57408142 C-269.88810863 282.64037073 -269.87799714 278.70666002 -269.86791992 274.77294922 C-269.86541305 273.7952745 -269.86290617 272.81759979 -269.86032333 271.81029856 C-269.82019226 255.97964815 -269.7970003 240.14902087 -269.78094129 224.31832957 C-269.76417546 208.05605326 -269.73244855 191.79386027 -269.68605727 175.53164101 C-269.66038634 166.4047851 -269.64118813 157.27801738 -269.63868141 148.15112305 C-269.63649491 140.37669736 -269.62068452 132.60244769 -269.58734892 124.82809061 C-269.57076469 120.86494936 -269.56046924 116.90206595 -269.56765556 112.93889046 C-269.574095 109.30273575 -269.5618623 105.66711553 -269.53545066 102.03105545 C-269.52614453 100.1092893 -269.53618024 98.18745861 -269.54716045 96.26570129 C-269.35087092 77.24837427 -260.7448832 62.90605644 -247.65625 49.62109375 C-209.58185114 14.08086754 -153.09781581 2.40338894 -103 -3 C-102.05374756 -3.1038501 -101.10749512 -3.2077002 -100.13256836 -3.31469727 C-67.12098225 -6.38766519 -32.73365125 -5.21569323 0 0 Z " fill="#4E4D4D" transform="translate(282,4)"/>
<path d="M0 0 C1.01518707 -0.00199402 2.03037415 -0.00398804 3.07632446 -0.00604248 C17.33654441 -0.00286053 31.38745445 0.84641294 45.5625 2.375 C46.50773529 2.47490234 47.45297058 2.57480469 48.42684937 2.67773438 C94.27373777 7.56786198 152.89629416 21.15409684 183.8203125 58.0703125 C192.19148098 69.15979399 195.41437248 78.50394427 194.5625 92.375 C191.96818078 108.53594268 180.14864264 121.02633871 167.52734375 130.4765625 C135.10765025 153.60535954 94.86596469 163.71507155 56 169.1875 C54.8823526 169.34588852 54.8823526 169.34588852 53.74212646 169.50747681 C35.85568464 172.00471429 18.10871881 172.58516383 0.0625 172.5625 C-0.90649231 172.56156342 -1.87548462 172.56062683 -2.87384033 172.55966187 C-56.49865106 172.44760079 -122.71081521 164.53647249 -166.4375 130.375 C-166.96730469 129.96427246 -167.49710938 129.55354492 -168.04296875 129.13037109 C-180.82843956 119.11337895 -191.14458981 107.74479093 -194.4375 91.375 C-195.89410403 78.26556373 -191.24204127 67.72090442 -183.4375 57.375 C-148.83171423 16.76427466 -83.7457415 4.97500991 -33.33764648 0.86250305 C-22.23999108 0.0599861 -11.12198533 0.00573008 0 0 Z " fill="#F2A665" transform="translate(221.4375,13.625)"/>
<path d="M0 0 C0.77617676 0.77706299 1.55235352 1.55412598 2.35205078 2.35473633 C42.66398825 42.62578948 101.48787298 54.43256391 156.26513672 59.63989258 C158.43515523 59.84912106 160.60425996 60.06960759 162.77001953 60.3190918 C172.34953399 61.37338193 182.00033805 61.19771814 191.625 61.1875 C192.58231018 61.18722809 193.53962036 61.18695618 194.52593994 61.18667603 C217.23046319 61.15701335 240.15161353 60.21182761 262.44140625 55.48193359 C265.02622736 54.99505985 267.51628741 54.76542421 270.140625 54.60546875 C291.40631328 53.17015717 308.72292453 49.09680906 327.55053711 38.89404297 C338.83936068 32.80835278 338.83936068 32.80835278 343 32 C346.40081271 33.32749271 348.56781482 35.33399384 351.109375 37.9140625 C352.24052734 39.05488281 352.24052734 39.05488281 353.39453125 40.21875 C354.17183594 41.0128125 354.94914062 41.806875 355.75 42.625 C356.93916016 43.82769531 356.93916016 43.82769531 358.15234375 45.0546875 C360.10614493 47.03202846 362.05512103 49.01388909 364 51 C363.67773438 52.01449219 363.35546875 53.02898437 363.0234375 54.07421875 C360.67453725 62.34525779 360.85310245 71.74020208 364.453125 79.60546875 C367.73063092 84.67898171 372.52828029 90.26414015 378 93 C372.15511162 106.8180785 354.54328322 115.3188476 342 122 C341.38866211 122.32613281 340.77732422 122.65226562 340.14746094 122.98828125 C309.41896334 139.06509813 274.15770059 146.12899581 240 150 C239.06671875 150.11714355 238.1334375 150.23428711 237.171875 150.35498047 C204.80492196 154.38289456 170.23564815 153.75209207 138 149 C136.85337891 148.83371094 135.70675781 148.66742188 134.52539062 148.49609375 C108.6852542 144.61360247 83.05437706 138.31696988 59 128 C58.23913086 127.67531738 57.47826172 127.35063477 56.69433594 127.01611328 C33.9926515 117.18263246 10.60249917 102.60553782 0.63652611 78.94425774 C-0.42098652 75.71410411 -0.39269789 72.49472589 -0.34057617 69.13696289 C-0.34101425 68.38491577 -0.34145233 67.63286865 -0.34190369 66.85803223 C-0.33982964 64.39596722 -0.31656524 61.93460087 -0.29296875 59.47265625 C-0.28736785 57.75630566 -0.28310008 56.03995025 -0.28010559 54.32359314 C-0.2686957 49.82394989 -0.23926206 45.32460089 -0.20599365 40.82507324 C-0.1752093 36.2265216 -0.16158243 31.62792204 -0.14648438 27.02929688 C-0.11438837 18.01940255 -0.06323906 9.00972582 0 0 Z " fill="#F2A665" transform="translate(28,346)"/>
<path d="M0 0 C0.78068848 0.78157471 1.56137695 1.56314941 2.36572266 2.3684082 C26.6143768 26.59234176 58.47400507 39.70587436 91 49 C91.74652832 49.2160791 92.49305664 49.4321582 93.26220703 49.65478516 C115.57786783 55.99713086 139.01895046 59.25818455 162.13183594 60.78222656 C164 61 164 61 167 62 C167.72278002 64.81149179 168.26857827 67.52051803 168.75 70.375 C174.04913014 98.03221165 187.86054687 122.45030162 211 139 C214.90678169 141.55922235 218.91969411 143.91800946 222.98046875 146.22265625 C226 148 226 148 228 150 C224.6068928 150.7590431 221.44516252 151.13696843 217.97070312 151.17700195 C216.98799942 151.18964584 216.00529572 151.20228973 214.99281311 151.21531677 C213.93299728 151.22289505 212.87318146 151.23047333 211.78125 151.23828125 C210.66757553 151.2480751 209.55390106 151.25786896 208.40647888 151.26795959 C143.08347058 151.72250498 63.46322416 146.05996362 13.75390625 97.8203125 C4.77560915 88.28193259 -0.27341739 77.65053917 -0.22705078 64.48242188 C-0.22734283 63.77899658 -0.22763489 63.07557129 -0.22793579 62.35083008 C-0.22655732 60.05667195 -0.21106727 57.76285044 -0.1953125 55.46875 C-0.19157708 53.86592791 -0.18873261 52.26310352 -0.18673706 50.66027832 C-0.17914225 46.46485972 -0.15952997 42.26958209 -0.1373291 38.07421875 C-0.11678069 33.78387356 -0.1077162 29.49350534 -0.09765625 25.203125 C-0.0762797 16.80201902 -0.04219458 8.4010271 0 0 Z " fill="#F2A665" transform="translate(28,242)"/>
<path d="M0 0 C0.77311523 0.77327637 1.54623047 1.54655273 2.34277344 2.34326172 C49.79491419 49.78668285 125.66551122 62.16745604 190.25 62.1875 C203.1826491 62.15904426 216.08876222 61.72302932 229 61 C226.13552441 63.29158047 223.11539821 65.10504684 219.92382812 66.90478516 C211.54609401 71.67413988 204.83479313 77.24830466 198 84 C197.35804688 84.56976563 196.71609375 85.13953125 196.0546875 85.7265625 C177.80724405 102.27656935 170.99405806 127.70132797 167 151 C158.46762121 151.26537413 150.25941817 150.47697035 141.8125 149.3125 C141.16037537 149.22352448 140.50825073 149.13454895 139.83636475 149.0428772 C95.82893238 142.99554916 39.40874497 130.67405161 10 94 C3.78818699 85.19511621 -0.26497197 76.44441465 -0.22705078 65.50415039 C-0.22734283 64.79111755 -0.22763489 64.07808472 -0.22793579 63.34344482 C-0.22655419 61.0113869 -0.21104896 58.67965763 -0.1953125 56.34765625 C-0.1915782 54.72098464 -0.1887332 53.09431078 -0.18673706 51.46763611 C-0.17913346 47.20480034 -0.15951339 42.94210279 -0.1373291 38.67932129 C-0.11679986 34.3220405 -0.10772026 29.96473718 -0.09765625 25.60742188 C-0.07626415 17.07155145 -0.04216812 8.53579296 0 0 Z " fill="#F2A665" transform="translate(28,138)"/>
<path d="M0 0 C0.94166016 0.69222656 0.94166016 0.69222656 1.90234375 1.3984375 C14.4419983 11.23680592 21.15068427 26.71730653 24 42 C25.82878197 59.49350029 21.09289395 77.2199687 10.2109375 91.05175781 C-0.68986037 104.28952841 -15.03629694 112.73649629 -31.9375 115.6875 C-33.29002314 115.81118999 -34.64454695 115.91417988 -36 116 C-36.78503906 116.06445312 -37.57007813 116.12890625 -38.37890625 116.1953125 C-56.12723513 116.98882944 -73.19134259 109.19968561 -86.30859375 97.671875 C-99.05861068 85.0143836 -105.95251146 68.37833282 -106.5 50.5 C-105.92769714 32.96168669 -99.30283883 16.68399391 -87 4 C-62.42184684 -18.3003572 -26.45439811 -20.3219911 0 0 Z " fill="#F0F0F0" transform="translate(341,245)"/>
<path d="M0 0 C17.63373791 14.17380287 29.62187285 31.87304566 32.625 54.6875 C34.3422314 76.28977329 29.73998378 96.84547893 15.9921875 113.94921875 C0.16874342 132.25323575 -18.91168042 142.16163449 -43.19921875 143.97265625 C-56.75800667 144.29852054 -69.18277274 141.56469242 -81.375 135.6875 C-82.28765625 135.26855469 -83.2003125 134.84960938 -84.140625 134.41796875 C-92.13072915 130.45715998 -98.12547099 124.9280498 -104.375 118.6875 C-105.0453125 118.02878906 -105.715625 117.37007812 -106.40625 116.69140625 C-121.02179804 101.24542934 -126.22572543 80.08928516 -125.6796875 59.33984375 C-124.77948397 41.4808472 -117.42905457 24.82480613 -105.375 11.6875 C-104.71113281 10.93210938 -104.04726562 10.17671875 -103.36328125 9.3984375 C-76.97231075 -18.99258806 -31.11936932 -22.4839433 0 0 Z M-94.375 19.6875 C-106.67911323 34.8413922 -113.1313756 51.99241187 -111.375 71.6875 C-108.59708621 89.93483892 -100.05668809 105.1723546 -85.4375 116.625 C-70.91274383 126.84954246 -53.71281886 131.64241692 -36.0625 129 C-24.90913127 126.70559272 -15.24888379 122.85486768 -6.375 115.6875 C-5.67890625 115.15382813 -4.9828125 114.62015625 -4.265625 114.0703125 C9.2721806 103.10364052 16.04697509 87.51913817 18.625 70.6875 C20.385091 52.92658174 14.92628732 36.35198663 3.9375 22.4375 C-7.50377873 9.31519381 -22.27601523 2.09036862 -39.375 -0.3125 C-59.92393308 -1.53649143 -79.78762636 4.63776904 -94.375 19.6875 Z " fill="#4E4E4D" transform="translate(346.375,231.3125)"/>
<path d="M0 0 C17.10598471 14.52946217 29.00173714 36.55641132 31.390625 58.94921875 C33.0058499 87.43562049 25.348843 111.51296374 6.16796875 133.01171875 C-4.45795376 144.48492745 -18.82216617 152.22875547 -33.609375 156.94921875 C-34.60324219 157.26890625 -35.59710938 157.58859375 -36.62109375 157.91796875 C-60.57887204 164.28313494 -85.3182957 159.92716788 -106.609375 147.94921875 C-110.48788792 145.50561354 -114.06956218 142.85794662 -117.609375 139.94921875 C-118.37378906 139.34722656 -119.13820312 138.74523437 -119.92578125 138.125 C-137.50692636 123.54029353 -147.44616327 102.24445901 -150.609375 79.94921875 C-152.67996851 54.28654562 -146.77389026 30.92261779 -130.07421875 10.8515625 C-96.53539096 -28.02924607 -39.64718688 -31.15983999 0 0 Z M-112.609375 10.94921875 C-113.74246094 11.94501953 -113.74246094 11.94501953 -114.8984375 12.9609375 C-129.05765511 26.12268445 -137.88447486 45.02845274 -138.89453125 64.3125 C-139.54280522 85.86066367 -133.56676161 105.75684834 -119.234375 122.13671875 C-117.70777046 123.7552259 -116.16657722 125.36012843 -114.609375 126.94921875 C-113.95710938 127.63757813 -113.30484375 128.3259375 -112.6328125 129.03515625 C-97.88664138 143.43971723 -76.84498614 149.35855975 -56.70703125 149.16015625 C-34.60060796 148.30564884 -15.46027997 138.91368371 -0.1796875 122.96484375 C14.59853288 105.626263 20.96049036 84.79350106 19.59326172 62.19287109 C18.05834383 45.19781641 10.90580248 29.49922098 -0.609375 16.94921875 C-1.27324219 16.19382812 -1.93710937 15.4384375 -2.62109375 14.66015625 C-17.15609963 -0.97639351 -37.20639589 -8.66153903 -58.28320312 -9.45581055 C-78.63592172 -9.74775528 -97.55125097 -2.86727049 -112.609375 10.94921875 Z " fill="#FC6F0E" transform="translate(359.609375,226.05078125)"/>
<path d="M0 0 C0.33 0 0.66 0 1 0 C1.11650358 9.29339266 1.20502117 18.58652904 1.25906086 27.88049603 C1.28501401 32.19736956 1.32014583 36.51373884 1.37719727 40.83032227 C1.43203343 45.0060341 1.46152754 49.18126487 1.47438622 53.35730934 C1.48353459 54.9403521 1.50139593 56.52337233 1.52865028 58.10620689 C1.79861535 74.45394951 -2.46891685 86.02106822 -13.82421875 97.99609375 C-14.81705867 99.02139003 -15.81314336 100.04355453 -16.8125 101.0625 C-17.29283691 101.55250488 -17.77317383 102.04250977 -18.26806641 102.54736328 C-21.75534083 106 -21.75534083 106 -24 106 C-25.12109375 104.26953125 -25.12109375 104.26953125 -26.4375 101.8125 C-39.00144601 80.30472802 -61.19390717 63.74356909 -85.296875 57.39501953 C-88.3988256 56.64424105 -91.50262734 55.92725086 -94.63037109 55.29174805 C-96.43280121 54.91717591 -98.21885489 54.46538233 -100 54 C-100.33 53.34 -100.66 52.68 -101 52 C-100.37770508 51.82460693 -99.75541016 51.64921387 -99.11425781 51.46850586 C-63.86752535 41.48624319 -23.99064583 29.67264089 0 0 Z " fill="#F2A665" transform="translate(415,138)"/>
<path d="M0 0 C3.68121885 1.4098285 4.75859881 2.8633594 6.9375 6.125 C7.7734375 9.32421875 7.7734375 9.32421875 8.3125 12.8125 C11.11566859 27.09673141 20.21681162 36.2079422 31.9375 44.1875 C68.08177044 67.77634474 114.71656384 74.85908301 157.1484375 75.5546875 C158.210625 75.585625 159.2728125 75.6165625 160.3671875 75.6484375 C161.31835449 75.66825684 162.26952148 75.68807617 163.24951172 75.70849609 C166.45868022 76.2057569 168.35973548 77.16339793 170.9375 79.125 C172.02552535 82.86508713 172.53182564 84.99578128 170.6875 88.5 C165.4701861 93.34464862 154.63828312 91.33632257 147.9375 91.125 C121.53927453 90.03449396 95.14147802 86.17789832 69.9375 78.125 C69.03628418 77.83786133 68.13506836 77.55072266 67.20654297 77.25488281 C48.36014386 71.1154501 30.222813 62.92829272 14.9375 50.125 C14.21820313 49.56683594 13.49890625 49.00867188 12.7578125 48.43359375 C0.85407962 38.8226032 -6.32697479 25.96788658 -8.35546875 10.95703125 C-8.62469646 7.07869691 -8.16583568 5.27392495 -5.9375 2.0625 C-3.0625 0.125 -3.0625 0.125 0 0 Z " fill="#4F4E4D" transform="translate(58.0625,74.875)"/>
<path d="M0 0 C5.05006625 2.59899221 8.98008996 5.54363254 12.97949219 9.59130859 C13.53164902 10.13820847 14.08380585 10.68510834 14.6526947 11.24858093 C16.45832546 13.04111114 18.25287992 14.84426788 20.046875 16.6484375 C21.30720002 17.90673923 22.56796989 19.16459554 23.8291626 20.42202759 C26.46311491 23.05157025 29.09159837 25.68642846 31.71630859 28.32519531 C35.07414706 31.70014223 38.44529919 35.06141709 41.82065964 38.41882896 C44.42380153 41.01111143 47.01973267 43.61052016 49.61356354 46.21211624 C50.8536716 47.45421941 52.09599513 48.69411489 53.34059906 49.9317131 C55.08047384 51.66393609 56.8103886 53.4055445 58.53808594 55.14990234 C59.04929489 55.6550386 59.56050385 56.16017487 60.08720398 56.68061829 C63.6885387 60.34627828 66.6995322 64.14086105 67.25 69.37890625 C66.76481768 73.61667059 66.33453169 75.58826868 63.5625 79 C59.75730084 81.96991154 57.27698409 82.50888392 52.51676941 82.36741638 C43.48403063 81.0487512 35.50697213 69.79709163 29.29296875 63.55859375 C28.07876733 62.34574196 26.86426935 61.133187 25.64949036 59.9209137 C23.11731461 57.3916718 20.58875442 54.85888538 18.06274414 52.32348633 C14.8304486 49.0797606 11.58920617 45.84514693 8.34522533 42.61311245 C5.84086209 40.11598361 3.34129077 37.61410189 0.84313393 35.11076546 C-0.35027125 33.91603007 -1.54515299 32.72276766 -2.74155617 31.53103447 C-4.41178267 29.86590323 -6.07543779 28.19446715 -7.73754883 26.52124023 C-8.22848526 26.03435226 -8.71942169 25.54746429 -9.22523499 25.04582214 C-13.02868841 21.19526088 -15.77864275 18.02910814 -16.375 12.5625 C-15.85320549 7.60545218 -14.6364587 4.40267888 -10.8125 1.125 C-7.16612093 -0.33355163 -3.82204949 -0.83979288 0 0 Z " fill="#FB6F0E" transform="translate(419,399)"/>
<path d="M0 0 C4.9513121 5.06384192 8.81054635 11.59866927 9.0625 18.8125 C8.97280358 25.68548813 6.67005745 32.63944497 2.5625 38.1875 C-3.91157278 44.22996792 -10.81874026 47.16018702 -19.62890625 47.01953125 C-27.42082836 46.40407391 -33.09532947 42.56150061 -38.25 36.8125 C-40.88521832 32.81030965 -42.78183127 28.61122945 -43.25 23.8125 C-43.31316406 23.16796875 -43.37632813 22.5234375 -43.44140625 21.859375 C-43.82787207 14.72845732 -42.04279919 8.41676627 -37.63671875 2.73046875 C-26.57896728 -8.91572182 -12.67954635 -8.53431004 0 0 Z " fill="#4F4E4D" transform="translate(163.25,429.1875)"/>
<path d="M0 0 C4.92702002 5.03899775 8.42996041 11.22805663 9.0625 18.3125 C8.91062541 26.57447793 5.49266419 34.1796433 -0.20703125 40.0859375 C-6.08464707 45.05325336 -12.13800175 47.63162958 -19.875 47.16015625 C-27.56237676 46.0348659 -33.06326469 42.59726244 -38.25 36.8125 C-40.88521832 32.81030965 -42.78183127 28.61122945 -43.25 23.8125 C-43.31316406 23.16796875 -43.37632812 22.5234375 -43.44140625 21.859375 C-43.82787207 14.72845732 -42.04279919 8.41676627 -37.63671875 2.73046875 C-26.57896728 -8.91572182 -12.67954635 -8.53431004 0 0 Z " fill="#4E4E4D" transform="translate(315.25,429.1875)"/>
<path d="M0 0 C5.34103783 4.13855277 8.79336507 8.83162478 10.6875 15.375 C11.86318762 25.25077603 9.98389065 32.31953898 3.81640625 40.171875 C-0.88308332 44.90168385 -7.43767619 48.10618658 -14.125 48.25 C-22.29350413 48.10437027 -28.32182038 45.56469279 -34.2734375 39.96875 C-39.23404644 34.31230904 -41.33983795 27.68281331 -41.21484375 20.2109375 C-40.5597326 13.46924825 -37.84461918 6.79688894 -33 2 C-22.63298797 -5.27575754 -11.143522 -6.28089422 0 0 Z " fill="#4F4E4D" transform="translate(161,220)"/>
<path d="M0 0 C5.02719154 5.1414459 8.84458624 11.68260195 9 19 C8.86801851 27.15645592 5.48820562 34.03727369 -0.25 39.8125 C-7.0360549 44.49893791 -13.03405606 46.50258721 -21.25 45.8125 C-28.32817358 44.50705005 -33.51895394 41.20717696 -38.25 35.8125 C-42.49775087 29.23216918 -44.10164968 22.59901135 -43.25 14.8125 C-41.07610576 6.22168901 -36.68689972 0.47463983 -29.125 -4.0625 C-18.30077518 -8.29806623 -9.43337844 -6.34938933 0 0 Z " fill="#4F4E4D" transform="translate(163.25,327.1875)"/>
<path d="M0 0 C5.02719154 5.1414459 8.84458624 11.68260195 9 19 C8.86801851 27.15645592 5.48820562 34.03727369 -0.25 39.8125 C-7.0360549 44.49893791 -13.03405606 46.50258721 -21.25 45.8125 C-28.32817358 44.50705005 -33.51895394 41.20717696 -38.25 35.8125 C-42.49775087 29.23216918 -44.10164968 22.59901135 -43.25 14.8125 C-41.07610576 6.22168901 -36.68689972 0.47463983 -29.125 -4.0625 C-18.30077518 -8.29806623 -9.43337844 -6.34938933 0 0 Z " fill="#4F4E4D" transform="translate(239.25,435.1875)"/>
<path d="M0 0 C0.33 0 0.66 0 1 0 C1.09314292 9.31070173 1.1639877 18.62124029 1.20724869 27.9323082 C1.22802365 32.25696147 1.25615384 36.58129335 1.30175781 40.90576172 C1.34557953 45.08793496 1.36921276 49.26980127 1.37950897 53.45218658 C1.3868358 55.03881911 1.40114126 56.62543699 1.42292023 58.21193695 C1.57460744 69.73163852 0.81174111 80.83211909 -6.4375 90.375 C-7.04464844 91.18066406 -7.65179688 91.98632812 -8.27734375 92.81640625 C-8.84582031 93.53699219 -9.41429687 94.25757813 -10 95 C-10.43441406 95.58652344 -10.86882812 96.17304688 -11.31640625 96.77734375 C-14.36717083 100.73427603 -17.88636181 103.25757454 -22 106 C-20.76132486 102.11351471 -19.32539505 98.45404526 -17.625 94.75 C-9.87031052 76.41864823 -8.44713939 56.07866795 -11.3125 36.5625 C-11.43012695 35.74692627 -11.54775391 34.93135254 -11.66894531 34.09106445 C-12.45352439 29.16035618 -13.67618215 24.61146167 -15.40307617 19.92553711 C-16 18 -16 18 -16 15 C-14.27734375 13.45703125 -14.27734375 13.45703125 -11.9375 11.8125 C-7.8013139 8.75446668 -4.56631587 5.47326033 -1.3125 1.50390625 C-0.879375 1.00761719 -0.44625 0.51132813 0 0 Z " fill="#F0A565" transform="translate(415,242)"/>
<path d="M0 0 C0.33 0 0.66 0 1 0 C1 12.87 1 25.74 1 39 C-1.97 39.66 -4.94 40.32 -8 41 C-8.9283667 41.27497314 -9.8567334 41.54994629 -10.81323242 41.83325195 C-13 42 -13 42 -15.03637695 40.67651367 C-16.00256958 39.68228394 -16.00256958 39.68228394 -16.98828125 38.66796875 C-17.69404297 37.95189453 -18.39980469 37.23582031 -19.12695312 36.49804688 C-19.84818359 35.73556641 -20.56941406 34.97308594 -21.3125 34.1875 C-22.42334961 33.06118164 -22.42334961 33.06118164 -23.55664062 31.91210938 C-29 26.30820853 -29 26.30820853 -29 24 C-27.17053168 22.64461317 -25.28265361 21.36793422 -23.375 20.125 C-18.08178763 16.5873068 -13.14167182 12.77350783 -8.3125 8.625 C-7.7129248 8.11340332 -7.11334961 7.60180664 -6.49560547 7.07470703 C-3.92204584 4.83776396 -1.90229114 2.85343671 0 0 Z " fill="#F0A565" transform="translate(415,346)"/>
<path d="M0 0 C3.99509559 3.21827145 5.11882148 5.63189329 5.6875 10.75 C5.51839443 15.00984994 4.03860181 17.55913122 1.25 20.8125 C-2.16457004 23.40286348 -5.58282171 23.24358741 -9.75 22.8125 C-12.80357079 21.19929279 -14.98833566 19.78189098 -17.125 17.0625 C-18.57399408 11.84612133 -18.45053657 8.16353481 -16 3.4375 C-11.56603474 -1.73545947 -6.43920859 -2.78056734 0 0 Z " fill="#D6EFEF" transform="translate(151.75,231.1875)"/>
<path d="M0 0 C2.40346513 1.86936177 3.8552475 3.03390302 5.25 5.75 C5.79897239 10.61232692 5.7613954 12.76373745 3.5 17.125 C0.29742257 20.86134034 -1.25430385 21.58381154 -6.125 22.125 C-10.44296607 21.67831385 -12.44326548 20.5184289 -15.75 17.75 C-18.11121663 14.7448152 -18.16860637 11.48511562 -18.0703125 7.71484375 C-17.43432619 3.81361065 -15.01549947 1.66639617 -11.9375 -0.5625 C-7.68084381 -1.90030623 -4.06253011 -1.8466046 0 0 Z " fill="#D6EFEF" transform="translate(303.75,439.25)"/>
<path d="M0 0 C3.62342508 1.6470114 6.16816086 3.4327343 8 7 C8.54897239 11.86232692 8.5113954 14.01373745 6.25 18.375 C3.04742257 22.11134034 1.49569615 22.83381154 -3.375 23.375 C-7.69296607 22.92831385 -9.69326548 21.7684289 -13 19 C-15.58644464 15.5905957 -15.36503115 12.1613551 -15 8 C-12.03240223 1.12766832 -7.25031946 -0.77681994 0 0 Z " fill="#D6EFEF" transform="translate(149,438)"/>
<path d="M0 0 C2.63978907 2.12649675 3.90317388 3.69353425 5.25 6.8125 C5.78348798 11.79172113 5.41955197 14.87788376 2.25 18.8125 C-0.65200363 21.15022514 -2.47300894 21.77724659 -6.1875 22.25 C-10.43345227 21.72856726 -12.48817577 20.54332959 -15.75 17.8125 C-18.34036348 14.39792996 -18.18108741 10.97967829 -17.75 6.8125 C-16.1218054 3.73056022 -14.71990938 1.54829333 -11.9375 -0.5625 C-7.6732135 -1.78086757 -4.07975167 -1.76171095 0 0 Z " fill="#D6EFEF" transform="translate(227.75,444.1875)"/>
<path d="M0 0 C3.62416894 1.64734952 6.12851416 3.45402683 8 7 C8.41259969 10.78216379 8.32517815 13.24695586 6.8125 16.75 C3.78730891 20.50540963 1.35661337 21.82734012 -3.4375 22.4375 C-7.68345227 21.91606726 -9.73817577 20.73082959 -13 18 C-15.35062814 14.794598 -15.39807915 11.90117562 -15 8 C-11.96933505 1.14112669 -7.28818465 -0.78087693 0 0 Z " fill="#D6EFEF" transform="translate(149,336)"/>
</svg>
